<?xml version="1.0" encoding="UTF-8"?><svg xmlns="http://www.w3.org/2000/svg" xmlns:xlink="http://www.w3.org/1999/xlink" viewBox="0 0 223.29 281.67"><defs><style>.p{fill:url(#e);}.q{fill:url(#d);}.r{fill:url(#g);}.s{fill:url(#f);}.t{fill:url(#o);}.u{fill:url(#i);}.v{fill:url(#h);}.w{fill:url(#k);}.x{fill:url(#j);}.y{fill:url(#m);}.a`{fill:url(#l);}.aa{fill:url(#n);}.ab{fill:#e97496;}.ac{fill:#fff;}.ad{fill:#2f98b8;}.ae{fill:none;stroke:#fff;stroke-miterlimit:10;stroke-width:.3px;}</style><linearGradient id="d" x1="164.03" y1="112.31" x2="161.87" y2="91.26" gradientTransform="matrix(1, 0, 0, 1, 0, 0)" gradientUnits="userSpaceOnUse"><stop offset=".11" stop-color="#f9b21c"/><stop offset=".23" stop-color="#fab828"/><stop offset=".48" stop-color="#fcc340"/><stop offset=".72" stop-color="#fcc341"/><stop offset=".81" stop-color="#fcc648"/><stop offset=".87" stop-color="#fdca54"/><stop offset=".92" stop-color="#fdd165"/><stop offset=".96" stop-color="#fed97a"/><stop offset=".97" stop-color="#ffda7d"/></linearGradient><linearGradient id="e" x1="27.1" y1="154.62" x2="143.44" y2="77.51" gradientTransform="matrix(1, 0, 0, 1, 0, 0)" gradientUnits="userSpaceOnUse"><stop offset=".06" stop-color="#f9b21c"/><stop offset=".16" stop-color="#fab828"/><stop offset=".36" stop-color="#fcc340"/><stop offset=".63" stop-color="#fcc342"/><stop offset=".75" stop-color="#fcc649"/><stop offset=".85" stop-color="#fdcb56"/><stop offset=".93" stop-color="#fdd268"/><stop offset=".99" stop-color="#ffda7d"/></linearGradient><linearGradient id="f" x1="62.02" y1="223.56" x2="83.59" y2="227.07" gradientTransform="translate(-35.38 14.74) rotate(-9.28)" xlink:href="#d"/><linearGradient id="g" x1="125.37" y1="223.97" x2="147.94" y2="215.94" gradientTransform="translate(85.75 -33.89) rotate(20.51)" xlink:href="#d"/><linearGradient id="h" x1="164.13" y1="136.38" x2="21.79" y2="172.17" gradientTransform="matrix(1, 0, 0, 1, 0, 0)" gradientUnits="userSpaceOnUse"><stop offset=".05" stop-color="#06618a"/><stop offset=".14" stop-color="#045b84"/><stop offset=".41" stop-color="#014f79"/><stop offset=".68" stop-color="#004b76"/><stop offset=".78" stop-color="#0a426b"/><stop offset=".95" stop-color="#16395f"/></linearGradient><linearGradient id="i" x1="66.86" y1="85.69" x2="1.64" y2="140.19" gradientTransform="matrix(1, 0, 0, 1, 0, 0)" gradientUnits="userSpaceOnUse"><stop offset=".05" stop-color="#06618a"/><stop offset=".44" stop-color="#065e87"/><stop offset=".66" stop-color="#09577f"/><stop offset=".85" stop-color="#0f4971"/><stop offset="1" stop-color="#16395f"/></linearGradient><linearGradient id="j" x1="56.81" y1="139.57" x2="75.69" y2="133.09" xlink:href="#d"/><linearGradient id="k" x1="155.87" y1="240.22" x2="133.9" y2="251.44" xlink:href="#h"/><linearGradient id="l" x1="157.58" y1="240" x2="138.97" y2="254.98" xlink:href="#h"/><linearGradient id="m" x1="-784.45" y1="-45.62" x2="-806.41" y2="-34.4" gradientTransform="translate(743.92 672.91) rotate(29)" xlink:href="#h"/><linearGradient id="n" x1="-782.73" y1="-45.83" x2="-801.34" y2="-30.86" gradientTransform="translate(743.92 672.91) rotate(29)" xlink:href="#h"/><linearGradient id="o" x1="-148.69" y1="-133.23" x2="-207.11" y2="-71.99" gradientTransform="translate(237.14 167.16) rotate(9.28)" gradientUnits="userSpaceOnUse"><stop offset=".05" stop-color="#06618a"/><stop offset=".05" stop-color="#055f88"/><stop offset=".11" stop-color="#02537d"/><stop offset=".19" stop-color="#004c77"/><stop offset=".4" stop-color="#004b76"/><stop offset=".6" stop-color="#0a426b"/><stop offset=".9" stop-color="#16395f"/></linearGradient></defs><g id="a"/><g id="b"><g id="c"><g><path class="q" d="M220.41,85.85l-11.07,1.07v-.07l-98.22,9.48c-5.68,.55-9.85,5.56-9.3,11.2l5.87,14.25,103.35-15.64c4.83-.41,8.62-4.55,8.62-9.61,0-1.91-.55-3.69-1.48-5.19l2.73-.26c1.44-.14,2.5-1.42,2.36-2.86-.14-1.44-1.42-2.5-2.86-2.36Z"/><path class="p" d="M70.2,23.98L27.36,147.57c-4.93,14.21,5.52,29.09,20.21,28.79l106.34-2.19c15.69-.32,25.51-17.57,18.08-31.76L108.49,21.01c-8.62-16.47-32.18-14.65-38.28,2.97Z"/><g><path class="s" d="M71.48,170.87h13.67v109h-24v-98.67c0-5.7,4.63-10.33,10.33-10.33Z" transform="translate(37.3 -8.85) rotate(9.28)"/><path class="ac" d="M72.06,260.83h19v11.5c0,5.24-4.26,9.5-9.5,9.5h0c-5.24,0-9.5-4.26-9.5-9.5v-11.5h0Z" transform="translate(44.82 -9.6) rotate(9.28)"/></g><g><path class="r" d="M134.89,165.58h13.67v109h-24v-98.67c0-5.7,4.63-10.33,10.33-10.33Z" transform="translate(-68.45 61.79) rotate(-20.51)"/><path class="ac" d="M158.21,245.86h19v11.5c0,5.24-4.26,9.5-9.5,9.5h0c-5.24,0-9.5-4.26-9.5-9.5v-11.5h0Z" transform="translate(-72.65 66.43) rotate(-18.49)"/></g><g><circle class="ac" cx="105.84" cy="66.7" r="11.37"/><ellipse class="ad" cx="111.15" cy="63.89" rx="5.31" ry="5.37"/></g><g><path class="ac" d="M96.66,103.91h15.09c.63,0,1.15,.51,1.15,1.15v9.72c0,.63-.51,1.15-1.15,1.15h-15.09c-3.32,0-6.01-2.69-6.01-6.01h0c0-3.32,2.69-6.01,6.01-6.01Z"/><path class="ab" d="M91.96,110.17c-.17-.26,.12-.5,.12-.5,0,0,10.18-5.72,15.71,4.27,0,0-9.79,5.7-15.83-3.77Z"/></g><g><circle class="ac" cx="84.73" cy="66.7" r="11.37"/><ellipse class="ad" cx="90.36" cy="64.79" rx="5.31" ry="5.37"/></g><path class="v" d="M166.39,131.07l-133.33,2.23s-16.03,24.84,.04,38.22c4.34,3.61,9.86,5.49,15.51,5.37l104.36-2.23c3.15-.07,6.24-.81,9.05-2.22,8.39-4.23,21.72-15.59,4.38-41.37Z"/><polygon class="ac" points="167.23 132.19 164.46 128.51 29.35 130.8 29.35 134.82 167.23 132.19"/><g><path class="u" d="M54.98,83.85c-1.37-.34-2.75-.53-4.13-.6l1.13-3.54c.79-2.48-.43-5.15-2.72-5.97l-4.24-1.52c-8.92-3.2-19.21,2.41-22.28,12.07l-6.73,19.52-.67-.26c-3.22-1.25-6.79,.56-7.98,4.05L.39,127.92c-1.19,3.48,.45,7.32,3.66,8.57l.63,.24-.26,.77c-.94,2.96-1.19,5.23,1.55,6.22l18.35,5.64c2.73,.98,5.72-.62,6.66-3.58l18.47-58.05c1.48-.02,2.97,.14,4.45,.51,10.71,2.68,16.89,14.81,13.82,27.1-3.07,12.29-14.24,20.07-24.95,17.39-1.76-.44-5.83-1.85-7.33-2.76l-1.13,4.51c1.54,.83,5.61,2.19,7.36,2.63,12.81,3.21,26.18-6.11,29.86-20.82,3.68-14.7-3.73-29.22-16.54-32.43Z"/><path class="ae" d="M9.87,134.84l6.94-19.27c.33-1,1.31-1.57,2.25-1.31l13.14,3.58c.98,.27,1.58,1.34,1.35,2.41l-4.57,20.97c-.24,1.09-1.25,1.78-2.26,1.54l-15.51-5.29c-1.09-.26-1.71-1.49-1.34-2.63Z"/><line class="ae" x1="22.8" y1="84.02" x2="48.4" y2="91.21"/><line class="ae" x1="21.59" y1="87.75" x2="47.18" y2="94.94"/><line class="ae" x1="34.3" y1="91.82" x2="26.21" y2="116.77"/></g><path class="x" d="M80.61,151.14l-13.84-45.68c-.05-.16-.44-.41-.51-.54-1.82-3.35-6.99-3.62-11.91-.52h0c-5.53,3.48-8.32,8.73-6.74,12.72l17.56,44.24c.11,.28,.26,.53,.42,.77,1.63,3.29,5.72,5.77,10.61,6.06,6.5,.38,11.95-3.27,12.17-8.15,.18-3.93-3.09-7.46-7.76-8.88Z"/><path class="ac" d="M81.56,248.31l-23.75-3.47-3.75,23.54s-.5,9.01,9.78,10.69l10.28,1.68,2.09,.34,5.36-32.78Z"/><path class="ac" d="M155.68,236.31l-23.12,8.56,8.47,22.38s4.08,8.11,14.18,4.56l10.09-3.55,2.06-.72-11.67-31.23Z"/><polygon class="w" points="157.83 241.88 134.65 250.53 133.94 248.75 157.12 240.1 157.83 241.88"/><polygon class="a`" points="159.01 245.02 135.83 253.68 135.12 251.9 158.3 243.25 159.01 245.02"/><polygon class="y" points="80.82 255.16 56.35 251.49 56.59 249.59 81.07 253.26 80.82 255.16"/><polygon class="aa" points="80.33 258.48 55.86 254.82 56.1 252.92 80.57 256.59 80.33 258.48"/><g><path class="t" d="M81.99,50.11c-5.94-1.52-15.83-3.12-21.38,1.09,0,0-14.83,6.41-17.18-1.9-1.44-5.07,12.02-17.3,14.6-19.59,.27-.24,.43-.57,.44-.93l.07-2.24,.4-11.93c.1-3.15,1.84-6.05,4.66-7.76,6.46-3.93,19.5-9.57,36.62-5.36,3.28,.81,5.91,3.12,6.9,6.19l3.31,10.26c.92,2.84,2.92,5.24,5.63,6.74,5.48,3.05,14.45,8.65,14.72,12.69,.23,3.48-5.95,4.17-11.08,4.14-4.14-.02-8.18,1.22-11.54,3.52-1.4,.96-3.05,1.98-4.92,2.93-6.51,3.31-14.14,3.97-21.25,2.16Z"/><path class="ac" d="M57.92,29.81s.39-.26,.55-1.02c.3-1.4,32.77-13.66,52.81-8.86,0,0,.42,.8,.93,1.43s-19.32-5.49-54.3,8.45Z"/></g></g></g></g></svg>