<?xml version="1.0" encoding="UTF-8"?><svg xmlns="http://www.w3.org/2000/svg" xmlns:xlink="http://www.w3.org/1999/xlink" viewBox="0 0 223.29 281.67"><defs><style>.t{fill:url(#e);}.u{fill:url(#d);}.v{fill:url(#g);}.w{fill:url(#f);}.x{fill:url(#s);}.y{fill:url(#i);}.a`{fill:url(#h);}.aa{fill:url(#k);}.ab{fill:url(#j);}.ac{fill:url(#m);}.ad{fill:url(#l);}.ae{fill:url(#n);}.af{mask:url(#o);}.ag{fill:#006a94;}.ah{fill:#e97496;}.ai{fill:#fff;}.aj{fill:#98a45e;}.ak{fill:#00a8cf;}.al{fill:#bfd287;}.am{fill:#2f98b8;}.an{filter:url(#q);}.ao{mix-blend-mode:darken;}.ap{fill:none;stroke:#fff;stroke-miterlimit:10;stroke-width:.3px;}</style><linearGradient id="d" x1="164.03" y1="112.31" x2="161.87" y2="91.26" gradientTransform="matrix(1, 0, 0, 1, 0, 0)" gradientUnits="userSpaceOnUse"><stop offset=".11" stop-color="#f9b21c"/><stop offset=".23" stop-color="#fab828"/><stop offset=".48" stop-color="#fcc340"/><stop offset=".72" stop-color="#fcc341"/><stop offset=".81" stop-color="#fcc648"/><stop offset=".87" stop-color="#fdca54"/><stop offset=".92" stop-color="#fdd165"/><stop offset=".96" stop-color="#fed97a"/><stop offset=".97" stop-color="#ffda7d"/></linearGradient><linearGradient id="e" x1="27.1" y1="154.62" x2="143.44" y2="77.51" gradientTransform="matrix(1, 0, 0, 1, 0, 0)" gradientUnits="userSpaceOnUse"><stop offset=".06" stop-color="#f9b21c"/><stop offset=".16" stop-color="#fab828"/><stop offset=".36" stop-color="#fcc340"/><stop offset=".63" stop-color="#fcc342"/><stop offset=".75" stop-color="#fcc649"/><stop offset=".85" stop-color="#fdcb56"/><stop offset=".93" stop-color="#fdd268"/><stop offset=".99" stop-color="#ffda7d"/></linearGradient><linearGradient id="f" x1="62.02" y1="223.56" x2="83.59" y2="227.07" gradientTransform="translate(-35.38 14.74) rotate(-9.28)" xlink:href="#d"/><linearGradient id="g" x1="125.37" y1="223.97" x2="147.94" y2="215.94" gradientTransform="translate(85.75 -33.89) rotate(20.51)" xlink:href="#d"/><linearGradient id="h" x1="164.13" y1="136.38" x2="21.79" y2="172.17" gradientTransform="matrix(1, 0, 0, 1, 0, 0)" gradientUnits="userSpaceOnUse"><stop offset=".05" stop-color="#06618a"/><stop offset=".14" stop-color="#045b84"/><stop offset=".41" stop-color="#014f79"/><stop offset=".68" stop-color="#004b76"/><stop offset=".78" stop-color="#0a426b"/><stop offset=".95" stop-color="#16395f"/></linearGradient><linearGradient id="i" x1="66.86" y1="85.69" x2="1.64" y2="140.19" gradientTransform="matrix(1, 0, 0, 1, 0, 0)" gradientUnits="userSpaceOnUse"><stop offset=".05" stop-color="#06618a"/><stop offset=".44" stop-color="#065e87"/><stop offset=".66" stop-color="#09577f"/><stop offset=".85" stop-color="#0f4971"/><stop offset="1" stop-color="#16395f"/></linearGradient><linearGradient id="j" x1="155.87" y1="240.22" x2="133.9" y2="251.44" xlink:href="#h"/><linearGradient id="k" x1="157.58" y1="240" x2="138.97" y2="254.98" xlink:href="#h"/><linearGradient id="l" x1="-784.45" y1="-45.62" x2="-806.41" y2="-34.4" gradientTransform="translate(743.92 672.91) rotate(29)" xlink:href="#h"/><linearGradient id="m" x1="-782.73" y1="-45.83" x2="-801.34" y2="-30.86" gradientTransform="translate(743.92 672.91) rotate(29)" xlink:href="#h"/><linearGradient id="n" x1="-148.69" y1="-133.23" x2="-207.11" y2="-71.99" gradientTransform="translate(237.14 167.16) rotate(9.28)" gradientUnits="userSpaceOnUse"><stop offset=".05" stop-color="#06618a"/><stop offset=".05" stop-color="#055f88"/><stop offset=".11" stop-color="#02537d"/><stop offset=".19" stop-color="#004c77"/><stop offset=".4" stop-color="#004b76"/><stop offset=".6" stop-color="#0a426b"/><stop offset=".9" stop-color="#16395f"/></linearGradient><filter id="q" x="72.43" y="122.1" width="86.82" height="48.43" color-interpolation-filters="sRGB" filterUnits="userSpaceOnUse"><feFlood flood-color="#fff" result="bg"/><feBlend in="SourceGraphic" in2="bg"/></filter><mask id="o" x="72.43" y="122.1" width="86.82" height="48.43" maskUnits="userSpaceOnUse"><g class="an"><g id="r" class="ao"><g><path class="al" d="M72.55,128.27c.17-.16,.48-.23,.71-.27,.23-.04,.47,.08,.7,0,.1-.03,.18-.09,.26-.14l.59-.4c-.08-.07-.19-.07-.29-.05-.1,.02-.2,.07-.3,.08-.08,.01-.15,0-.23,0-.02,0-.05,0-.06-.02-.02-.02-.02-.05-.02-.07,0-.12,0-.26,.09-.35,.11-.12,.29-.12,.45-.07,.15,.05,.29,.14,.45,.15,.13,.01,.45-.04,.48-.2,.03-.12-.18-.3-.25-.38,.26-.28,.71-.24,1.05-.28,.49-.06,.98-.13,1.48-.17,.6-.06,1.2-.1,1.8-.12,.37-.01,1.33-.23,1.62,.07,.08,.09,.13,.2,.19,.3,.24,.38,.7,.51,1.13,.47,.66-.06,1.24-.25,1.92-.23,1.31,.04,2.49,.27,3.66,.86,.16,.08,.37,.12,.52,.01,.09-.07,.15-.19,.26-.23,.04-.01,.09,0,.13,0,.53,.03,1.07-.01,1.59,.11,.38,.09,.75,.3,1.14,.17,.36-.13,.61-.5,.73-.85,.01-.04,.03-.09,.06-.11,.08-.06,.46-.05,.55-.02,.1,.03,.18,.13,.16,.23-.06,.29,.14,.34,.22,.63,.04,.15,.07,.3,.18,.41-.21,.04-.38,.35-.61,.3-.3-.07-.37-.23-.42,.17-.03,.2-.21,.34-.38,.43-.55,.28-3.61,.85-2.54,2.04,.3,.34,.87,.55,1.31,.61,.16,.02,.69-.02,.44,.29-.12,.15-.19,.36-.15,.56,.04,.19,.18,.37,.38,.42,.43,.11,.64-.36,.61-.71,.38-.44,.98-.29,1.38-.59-.03-.33-.22-.63-.09-.91,.08-.16,.15-.35,.33-.47l.3-.02,.5-.45c.67-.01,.8,.02,1.25,.33,.07,.1,.01,.21,.02,.31,0,.09,0,.18-.01,.26,.19,.25,.39,.28,.68,.16,.28-.11,.53-.36,.9-.26l-.06,1.09c.17,.19,.23,.38,.28,.6,.13,.11,.29,.04,.44,.07,.13,.12,.28,.24,.16,.46-.2,.34-.59,.47-.9,.69-.12,.09-.32,.17-.54,.13-.35-.06-.71-.03-1.06-.07-.5-.06-.95,.15-1.43,.2-.12,.01-.28,.13-.22,.38,.05,.18,.93-.06,1.05-.05h0c.54,.03-.18,.49-.2,.58-.03,.18,.18,.31,.36,.35,.06,.01,.14,.03,.16,.09,.02,.05-.02,.11-.07,.14-.05,.03-.1,.04-.16,.05-.13,.04-.23,.14-.33,.24-.1,.1-.2,.19-.33,.23-.55,.16-.11-.61-.53-.56-.45,.06-.87,.3-1.15,.66-.31,.39-.46,.49-.94,.63-.79,.22-1.24,1.03-1.79,1.58-.54,.54-1.24,.8-1.86,1.21-.12,.08-.24,.16-.33,.27-.18,.22-.12,.57-.09,.83,.02,.19,.19,.79,.04,.95-.12,.14-.26,.24-.46,.17-.25-.29-.17-.64-.16-.98-.28-.41-.65-.75-1.16-.83-.06,0-.11-.01-.17,0-.13,.03-.2,.16-.3,.26-.2,.21-.53,.28-.8,.18-.16-.06-.1-.29-.36-.26-.11,.01-.22,.06-.33,.08-.5,.08-1.1,.27-1.42,.71-.66,.9-1.37,3.34,.61,3.18,.19-.02,.37-.07,.51-.19,.18-.15,.27-.39,.41-.59,.14-.19,.4-.35,.61-.25,.15,.07,.22,.26,.21,.43-.01,.17-.09,.32-.16,.47l-.45,.93,.83,.09c.13,.01,.27,.03,.38,.12,.12,.11,.15,.29,.13,.45-.02,.16-.1,.31-.14,.46-.15,.49-.04,1.06,.28,1.46-.11,.1-.29,.09-.42,.03-.13-.07-.23-.19-.31-.32-.15-.26-.24-.55-.38-.82-.14-.27-.34-.52-.62-.62-.33-.11-.6-.05-.91-.29-.22-.17-.42-.38-.68-.49-.25-.1-.52-.1-.79-.13-.79-.08-1.7-.47-2.17-1.14-.18-.26-.16-.54-.2-.84-.04-.25-.14-.5-.25-.73-.24-.52-.57-1-.76-1.54-.14-.39-.16-.78-.37-1.14-.05-.09-.12-.19-.23-.21-.09-.02-.2,.03-.28-.02-.09-.05-.09-.19-.11-.29-.06-.26-.32-.28-.49-.43-.18-.16-.29-.41-.36-.64-.14-.48-.1-1.01-.06-1.5,.01-.14,.03-.27,.08-.4,.06-.13,.15-.23,.25-.33,.44-.47,.99-.94,1.32-1.51,.08-.13,.13-.28,.24-.39,.07-.07,.15-.13,.22-.2,.22-.22,.1-.57,.05-.84-.07-.34-.08-.69-.03-1.04,.04-.28,.13-.56,.11-.84-.04-.48-.42-.55-.65-.88-.2-.29-1.09-.31-1.42-.41-.42-.12-.74-.12-1.15,.05-.11,.04-.25,.09-.36,.05-.11-.03-.18-.19-.3-.18-.12,0-.14,.18-.22,.27-.06,.07-.15,.09-.24,.11-.35,.08-.87,.31-1.22,.19-.34-.12-.73-.39-.82-.76-.04-.17,.01-.29,.11-.39Z"/><path class="al" d="M91.98,168.45h-.01c-.74-.44-1.28-1.12-1.53-1.95-.02-.07-.04-.14-.03-.22,.01-.09,.07-.17,.11-.25,.15-.31,.07-.69-.08-1.01-.21-.47-.43-.8-.49-1.32-.07-.63-.12-1.26-.14-1.89-.05-1.23-.01-2.47,.1-3.69,.03-.34,.07-.68,.02-1.02-.1-.61-.55-.87-1-1.21-.5-.37-.99-.77-1.33-1.3-.53-.81-.93-1.68-1.32-2.56-.05-.12-.11-.26-.09-.39,.03-.19,.23-.35,.21-.55,0-.1-.06-.19-.1-.28-.09-.25-.02-.53,.13-.76,.35-.53,.88-.88,1.2-1.45,.1-.17,.14-.38,.09-.57-.03-.11-.1-.21-.13-.32-.06-.2,.01-.43,.13-.6,.27-.39,.75-.7,1.17-.89,.05-.02,.1-.04,.15-.04,.16,0,.24,.19,.29,.34s.16,.33,.32,.31c.21-.03,.2-.36,.37-.5,.18-.14,.56,.1,.74,.16,.36,.11,.72,.19,1.1,.21,.35,0,.45,.31,.69,.51,.29,.24,.67,.34,.97,.56,.36,.26,.6,.67,1.01,.85,.16,.07,.34,.1,.51,.17,.49,.19,.68,.61,.73,1.08,.04,.39,.27,.72,.6,.91l.04,.02c.46,.27,.43,.26,.89,.52,.6,.34,1.23,.21,1.84,.48,.46,.21,.85,.53,1.24,.84,.06,.05,.13,.1,.17,.17,.28,.51-.23,1.07-.53,1.43-.37,.45-.66,1.03-.78,1.6-.18,.86-.06,1.99-.79,2.63-.34,.3-.79,.34-1.22,.42-.52,.1-.67,.34-.81,.85-.2,.71-.47,1.54-.92,2.13-.2,.27-.49,.48-.82,.53-.15,.02-.49-.14-.61-.01-.2,.21,.24,.39,.33,.6,.11,.25,0,.58-.25,.71-.23,.13-.57,.07-.77,.25-.19,.18-.13,.61-.44,.66-.15,.02-.32-.09-.45-.02-.14,.08-.12,.29-.05,.43,.08,.14,.19,.27,.19,.43,0,.16-.12,.28-.21,.4-.1,.12-.19,.28-.13,.43,.05,.12,.18,.18,.29,.26,.41,.28-.1,1.37-.2,1.76-.01,.05-.03,.1-.06,.14-.08,.09-.22,.07-.32,.01Z"/><path class="al" d="M159.17,157.86s-.04,.02-.06,.02c-.05,0-.1,0-.15-.02-.39-.14-.74-.38-1.01-.68-.16-.18-.33-.41-.58-.42-.18,0-.35,.11-.52,.17-.48,.16-.76-.19-1.18-.31-.06-.02-.14-.03-.18-.08-.08-.08-.05-.21-.04-.33,.02-.24-.1-.48-.31-.61-.11-.07-.24-.11-.3-.22-.12-.21,.18-1.06,.51-.91,.63,.29,1.29,.52,1.91,.83,.36,.18,.7,.45,.86,.82,.1,.22,.13,.46,.24,.67,.1,.18,.24,.32,.4,.44,.14,.11,.37,.18,.46,.34,.05,.09,.03,.23-.05,.29Z"/><path class="al" d="M119.76,131.77c.26-.14,.7,.16,.88-.09,.12-.16-.05-.4-.24-.45-.2-.05-.4,.01-.6,.03-.2,.02-.44-.04-.52-.23-.14-.35,.64-.91,.11-1.16-.15-.07-.33-.04-.48,.04-.64,.34-.65,1.23-.85,1.94-.09,.32-.28,.66-.61,.72-.67,.11-.96-1.02-1.63-1.09-.2-.02-.44,.05-.59-.09-.22-.21,.02-.56,.25-.76l.65-.55c1.08-.91,2.28-1.87,3.69-1.89,.62,0,1.23,.17,1.82,.38,.45,.16,.9,.34,1.33,.54,.17,.08,.37,.28,.24,.42-.04,.04-.1,.06-.16,.06-.4,0-.8-.01-1.2-.02,.26,1.52,2.25,.28,2.91,.02,1.48-.58,2.8-.4,4.31-.11,.16,.03,.36,.03,.42-.11,.08-.2-.22-.33-.34-.51-.26-.36,.29-.6,.58-.54,.38,.09,.47,.49,.53,.82,.05,.3,.22,.66,.52,.63,.27-.03,.39-.34,.49-.59,.88-2.17,3.98-2.31,5.86-1.56,.16,.06,.33,.16,.47,.28,.34,.3,.76,.5,1.21,.57,1.45,.22,4.05,.92,4.41,.97,.9,.13,1.65,0,2.53-.1,1.03-.11,2.06,.33,3.06,.5,1.09,.19,2.17,.31,3.25,.57,.3,.07,.61,.15,.92,.11,.2-.03,.39-.1,.59-.14,.61-.13,1.25,.06,1.82,.29,.43,.17,.86,.34,1.3,.48,.49,.16,.72,.14,.4,.52-.09,.11-.12,.3-.07,.43,.05,.13,.14,.24,.18,.37,.08,.24,0,.54-.21,.69-.38,.29-1.45-.36-1.52,.39-.02,.22,.1,.42,.25,.59s.31,.32,.41,.51c.18,.37,.06,.82-.04,1.22,0,.03-.02,.06-.03,.08-.1,.17-.26,.11-.38,.04-.96-.54-1.46-1.78-1.15-2.84,.16-.54-.25-.55-.66-.53-.7,.04-.77,.21-1.15,.72-.18,.24-.52,.29-.81,.23-.29-.05-.56-.19-.85-.24-.46-.08-.95,.04-1.31,.34-.35,.29-.55,.84-.26,1.18,.25,.29,.71,.26,1.09,.32,.76,.12,1.4,.75,1.54,1.51s-.23,1.58-.89,1.96c-.36,.21-.84,.37-.91,.78-.07,.42,.35,.74,.67,1.02s.56,.85,.21,1.08c-.35,.23-.77-.17-.99-.53l-.66-1.07c-.06-.1-.14-.2-.25-.21-.19,0-.34,.3-.51,.22-.1-.05-.11-.19-.14-.3-.22-.81-1.71,.27-1.09,.92,.15,.16,.38,.21,.55,.34,.26,.19,.38,.51,.52,.81,.23,.48,.54,.91,.74,1.4s.24,1.08-.05,1.53c-.25,.38-.67,.55-1.06,.74-.48,.23-.81,.5-1.2,.86-.12,.1-.28,.22-.41,.14-.07-.04-.1-.13-.14-.2-.26-.65-1.12-.53-1.22,.18-.05,.4,.16,.78,.41,1.1,.24,.32,.53,.62,.66,.99,.15,.42,.08,.91-.19,1.28-.25,.34-.73,.56-1.11,.38-.55-.26-.59-1.15-1.17-1.34-.22-.07-.49-.03-.64-.2-.18-.19-.08-.55-.29-.71-.38-.3-.64-.04-.85-.59-.26-.7-.7-1.54-1.36-1.93-.19-.11-.41-.17-.62-.12-.18,.04-.33,.15-.47,.26-.5,.38-1.04,.74-1.52,1.15-.39,.33-.69,.73-.8,1.23-.12,.52,.13,1.09-.07,1.59-.1,.25-.34,.46-.61,.42-.2-.03-.37-.19-.46-.38-.5-1.04-.7-2.3-.83-3.43-.02-.2-.02-.6-.23-.71-.21-.11-.55,.09-.81-.04-.26-.13-.4-.41-.56-.65-.35-.49-.91-.84-1.51-.92-.54-.08-1.13,.04-1.61-.21-.35-.18-.6-.51-.98-.66-.41-.16-.83-.19-1.21-.43-.29-.18-.65-.67-.97-.18-.15,.23-.11,.55,.02,.8,.21,.41,.64,.7,1.1,.75,.39,.04,.8-.09,1.18,0,.51,.12,.88,.68,.79,1.2-.06,.37-.32,.68-.58,.95-.81,.83-1.82,1.47-2.92,1.85-.21,.07-.43,.14-.65,.08-.36-.1-.55-.49-.68-.84-.42-1.07-.8-2.18-1.35-3.19-.22-.4-.82-1.8-1.43-1.7-.26,.04-.25,.42-.16,.66,.64,1.91,1.59,3.73,2.8,5.34,.1,.13,.2,.26,.33,.34,.31,.18,.69,.07,1.05,0,.35-.06,.8,.01,.92,.35,.05,.15,.01,.32-.04,.48-.37,1.15-1.37,1.95-2.24,2.79-.86,.84-1.68,1.94-1.51,3.14,.08,.59,.41,1.19,.23,1.76-.31,.97-1.88,1.24-1.9,2.26,0,.26,.1,.52,.04,.77-.04,.17-.16,.3-.28,.44l-.98,1.12c-.93,1.07-2.08,2.23-3.49,2.15-.16,0-.34-.04-.46-.16-.1-.1-.14-.24-.18-.37l-1.4-4.69c-.12-.42-.25-.85-.22-1.29,.04-.55,.32-1.04,.47-1.57,.28-1,.02-2.13-.65-2.91-.2-.23-.44-.46-.5-.76-.1-.52,.4-1.07,.16-1.54-.09-.17-.25-.28-.41-.39-.53-.36-1.09-.72-1.72-.81-1.05-.14-2.02,.49-3.06,.43-1.21-.07-1.44-1.13-2.08-1.94-.29-.37-.71-.68-.81-1.14-.11-.49,.19-.88,.32-1.32,.14-.52,.07-1.04,.14-1.56,.12-.9,.73-1.46,1.34-2.06,.64-.62,1.29-1.23,2.02-1.73,1.39-.94,2.96-1.1,4.6-.99,.83,.06,.49,.53,.79,1.06,.21,.36,.62,.59,.97,.78,.43,.24,.94,.48,1.4,.29,.17-.07,.31-.19,.47-.26,.51-.22,1.08,.09,1.6,.27,.6,.21,1.27,.25,1.89,.11,.33-.07,.66-.2,.89-.44,.23-.25,.33-.63,.17-.93-.2-.38-.7-.46-1.12-.46s-.9,0-1.21-.29c-.25-.25-.31-.63-.49-.93-.18-.3-.67-.5-.87-.2-.16,.24,0,.62-.22,.81-.41,.35-.77-.46-.88-.73-.33-.87-1-1.61-1.86-1.99-.07-.03-.16-.03-.22,0-.19,.1-.09,.36,.05,.5,.13,.14,.3,.29,.25,.48-.09,.33-.49,.17-.66,.02-.13-.12-.24-.26-.38-.37-.36-.28-.88-.27-1.3-.09-.96,.42-1.41,1.52-2.37,1.93-1,.43-2.47-.63-1.65-1.7,.23-.3,.62-.46,1-.4,.19,.03,.36,.1,.55,.12,.19,.02,.4-.03,.5-.19,.16-.27-.09-.58-.17-.89-.07-.29,.04-.59,.22-.82,.88-1.13,2.99-1.87,4.38-1.53,.6,.15,1.33,.26,1.77-.18,.17-.17,.27-.42,.5-.5,.08-.03,.17-.04,.26-.07,.21-.08,.32-.36,.22-.56,.01,0,.02-.02,.04-.02Z"/><path class="al" d="M151.55,164.67c-.28-.19-.65-.23-1.01-.18-1.29,.17-2.52,.63-3.81,.81-.14,.02-.29,.03-.4-.04-.23-.15,0-.47,.06-.65,.2-.56,.05-1.07,.1-1.63,.09-1.09,.25-1.93,1.38-2.28,.43-.13,.87-.2,1.3-.37,.29-.12,.57-.32,.66-.62,.01-.04,.02-.09,.05-.12,.1-.11,.34-.08,.47-.19,.24-.2,.4-.52,.65-.73,.09-.07,.19-.14,.3-.14,.13,0,.24,.11,.33,.21,.47,.61,.68,0,1.07-.37,.38-.36,1-.4,1.49-.33,.06,0,.13,.02,.17,.06,.1,.09,.04,.25-.02,.38-.4,.93,1.11,1.92,1.57,.91,.15-.32,.21-.65,.39-.96,.4-.67,.84,1.58,.82,1.87,0,.06,0,.12,.01,.18,.04,.09,.14,.13,.22,.19,.29,.21,.37,.66,.49,.97,.17,.43,.61,.36,.62,.92,0,.3-.02,.61-.05,.91,0,.09-.02,.18-.05,.27-.07,.18-.24,.32-.27,.52-.01,.08,0,.16-.03,.23-.02,.06-.07,.11-.11,.16-.57,.61-1.17,1.17-1.78,1.73-.36,.33-.81,.52-1.26,.7-.5,.2-.91,.06-1.43-.03-.17-.03-.37-.08-.45-.24-.1-.2,.06-.4,.02-.6-.03-.18-.22-.3-.24-.48-.02-.13,.08-.29,0-.39-.08-.1-.24-.05-.34,.02-.11,.07-.23,.16-.35,.11-.12-.04-.16-.19-.2-.31-.08-.23-.21-.39-.37-.5Z"/><path class="al" d="M101.16,125.46h-.02c-.29-.14-.23-.56,.09-.6,.15-.02,.28-.04,.34-.06h0c.37-.15,.19-.43-.15-.38-.82,.1-1.63,.28-2.46,.39-.52,.07-.96,.39-1.44,.57-.1,.04-.21,.07-.32,.07-.2-.01-.38-.15-.57-.23-.2-.08-.41-.1-.61-.17-.2-.07-.39-.24-.39-.45h0c.26-.27,.64-.36,1.01-.39,.43-.03,.84,.01,1.26-.09,.43-.11,.83-.32,1.28-.4,.47-.09,.95-.03,1.42,.03l2.06,.25,.32,.04c.52,.06,1.3,.23,1.82,.03,.07-.03,.13-.07,.2-.08,.08-.01,.16,.01,.24,.04,.74,.27,1.4,.34,2.18,.38l1.89,.09c.15,0,.31,.02,.46-.02,.12-.03,.23-.08,.36-.09,.23-.02,.91,.25,.93,.51,0,.05,0,.11-.04,.15-.03,.03-.07,.05-.11,.07-.18,.07-.36,.15-.52,.26-.16,.11-.29,.28-.32,.47-.02,.12,0,.25-.07,.35-.05,.08-.14,.12-.23,.15-.21,.06-.44,.05-.65,.07-.37,.05-.66,.3-.63,.7,.01,.15,.07,.3,.02,.45-.04,.12-.15,.21-.28,.26-.52,.19-1.13,.04-1.67,.14-.71,.12-1.32,.57-2.02,.73-.36,.08-.69,.12-.95,.4-.28,.31-.38,.75-.74,.99-.24,.16-.56,.18-.82,.06-.59-.27-.75-1.28-.83-1.85-.01-.09-.02-.2,.03-.28,.1-.16,.4-.01,.55-.05,.23-.06,.42-.26,.49-.47,.11-.32,.02-.67-.15-.96-.21-.39-.52-.77-.9-1.02-.02-.02-.05-.03-.08-.04Z"/><path class="al" d="M95.12,126.7s-.07,.07-.11,.1c-.09,.08-.24,.06-.3-.05l-.09-.15c-.05-.09-.03-.19,.05-.26l.27-.22c.06-.05,.15-.06,.22-.02,.45,.24,1.03-.19,1.6-.01,.04,.01,.08,.04,.1,.07,.08,.13,.27,.18,.43,.31,.03,.02,.07,.04,.11,.04l.36,.02s.07,.01,.1,.03c.22,.15,.15,.35,.16,.52,0,.04,.02,.09,.05,.12l.39,.44s.05,.09,.05,.14l-.02,.32c0,.11-.1,.2-.21,.19h0c-.15-.01-.26,.14-.2,.28l.04,.09c.06,.14-.05,.29-.2,.28-.05,0-.11-.01-.16-.02-.16-.01-.27,.16-.19,.29,.02,.04,.05,.09,.06,.13,.03,.12-.07,.24-.19,.24-.11,0-.23-.04-.33-.04-.03,0-.07,0-.1-.02l-.98-.56c-.07-.04-.1-.11-.1-.18v-.02c0-.07,.04-.13,.1-.16,.12-.06,.23-.16,.39-.14,.2,.02,.27-.17,.39-.25,.05-.03,.08-.09,.08-.14,.03-.37-.16-.64-.32-.95-.03-.07-.1-.11-.17-.11-.4,0-.72-.33-1.15-.34-.05,0-.09,.01-.13,.05Z"/><path class="aj" d="M146.99,153.11s.07-.02,.1-.09c.03-.06,.03-.13,.05-.2,.04-.13,.16-.17,.23-.27,.07-.11,.06-.24,.15-.35,.09-.1,.23-.17,.35-.21,.2-.07,.43-.1,.58-.25,.11-.1,.17-.25,.29-.33,.33-.22,.63,.16,.67,.46,.03,.26-.17,.43-.23,.66-.07,.27,.26,.56,.14,.78-.05,.1-.18,.14-.22,.25-.06,.13,0,.26-.11,.38-.1,.12-.23,.18-.31,.31-.08,.12-.09,.29-.23,.36-.07,.04-.15,.03-.22,.03-.34,0-.68-.03-1.01-.13-.41-.13-.52-.29-.67-.68-.06-.17-.18-.93,.22-.86,.08,.01,.15,.13,.22,.14Z"/><path class="al" d="M125.42,157.99c.05-.14,.21-.22,.35-.26,.46-.12,.8-.29,1.11-.67,.05-.06,.09-.12,.16-.16,.24-.13,.26,.21,.25,.35,0,.2-.05,.4-.09,.59-.09,.45-.29,.85-.46,1.28-.16,.39-.31,.78-.47,1.17-.12,.3-.2,.63-.55,.73-.24,.07-.53-.02-.69-.21-.13-.15-.18-.36-.19-.56,0-.16,0-.33,.08-.47,.08-.17,.23-.31,.34-.47,.21-.31,.22-.66,.16-1.01-.02-.11-.04-.22,0-.32Z"/><path class="al" d="M88.53,125.6c.18,.24,.46,.37,.73,.52,.08,.05,.17,.06,.26,.03,.29-.08,.6-.05,.91-.13,.22-.06,.42,.12,.41,.34v.21c-.02,.14-.11,.26-.24,.3-.23,.07-.5,.05-.74,.14-.13,.05-.34,.05-.49-.08-.14-.12-.33-.13-.48-.06-.34,.16-.68,.02-1.02,.03-.04,0-.08-.04-.12-.1-.05-.06-.08-.15-.08-.23v-.14c.02-.18-.12-.34-.31-.35h-.01c-.35-.02-.43-.5-.11-.64,.06-.03,.13-.05,.19-.08,.1-.04,.21-.04,.3,.01,.17,.09,.37,.08,.57,.09,.1,0,.19,.05,.25,.13Z"/><path class="al" d="M145.27,154.78v.25c-.02,.18-.17,.34-.35,.35-.04,0-.09,0-.13,0-.1-.01-.19-.07-.25-.15-.49-.68-.79-1.47-1.28-2.14l-.02-.02c-.21-.31,.12-.69,.46-.54,.05,.02,.09,.03,.14,.03,.13,0,.24,.07,.31,.18,.39,.63,.77,1.22,1.09,1.87,.03,.06,.04,.12,.04,.18Z"/></g></g></g></mask><linearGradient id="s" x1="56.81" y1="139.57" x2="75.69" y2="133.09" xlink:href="#d"/></defs><g id="a"/><g id="b"><g id="c"><g><path class="u" d="M220.41,85.85l-11.07,1.07v-.07l-98.22,9.48c-5.68,.55-9.85,5.56-9.3,11.2l5.87,14.25,103.35-15.64c4.83-.41,8.62-4.55,8.62-9.61,0-1.91-.55-3.69-1.48-5.19l2.73-.26c1.44-.14,2.5-1.42,2.36-2.86-.14-1.44-1.42-2.5-2.86-2.36Z"/><path class="t" d="M70.2,23.98L27.36,147.57c-4.93,14.21,5.52,29.09,20.21,28.79l106.34-2.19c15.69-.32,25.51-17.57,18.08-31.76L108.49,21.01c-8.62-16.47-32.18-14.65-38.28,2.97Z"/><g><path class="w" d="M71.48,170.87h13.67v109h-24v-98.67c0-5.7,4.63-10.33,10.33-10.33Z" transform="translate(37.3 -8.85) rotate(9.28)"/><path class="ai" d="M72.06,260.83h19v11.5c0,5.24-4.26,9.5-9.5,9.5h0c-5.24,0-9.5-4.26-9.5-9.5v-11.5h0Z" transform="translate(44.82 -9.6) rotate(9.28)"/></g><g><path class="v" d="M134.89,165.58h13.67v109h-24v-98.67c0-5.7,4.63-10.33,10.33-10.33Z" transform="translate(-68.45 61.79) rotate(-20.51)"/><path class="ai" d="M158.21,245.86h19v11.5c0,5.24-4.26,9.5-9.5,9.5h0c-5.24,0-9.5-4.26-9.5-9.5v-11.5h0Z" transform="translate(-72.65 66.43) rotate(-18.49)"/></g><g><circle class="ai" cx="105.84" cy="66.7" r="11.37"/><ellipse class="am" cx="111.15" cy="63.89" rx="5.31" ry="5.37"/></g><g><path class="ai" d="M96.66,103.91h15.09c.63,0,1.15,.51,1.15,1.15v9.72c0,.63-.51,1.15-1.15,1.15h-15.09c-3.32,0-6.01-2.69-6.01-6.01h0c0-3.32,2.69-6.01,6.01-6.01Z"/><path class="ah" d="M91.96,110.17c-.17-.26,.12-.5,.12-.5,0,0,10.18-5.72,15.71,4.27,0,0-9.79,5.7-15.83-3.77Z"/></g><g><circle class="ai" cx="84.73" cy="66.7" r="11.37"/><ellipse class="am" cx="90.36" cy="64.79" rx="5.31" ry="5.37"/></g><path class="a`" d="M166.39,131.07l-133.33,2.23s-16.03,24.84,.04,38.22c4.34,3.61,9.86,5.49,15.51,5.37l104.36-2.23c3.15-.07,6.24-.81,9.05-2.22,8.39-4.23,21.72-15.59,4.38-41.37Z"/><polygon class="ai" points="167.23 132.19 164.46 128.51 29.35 130.8 29.35 134.82 167.23 132.19"/><g><path class="y" d="M54.98,83.85c-1.37-.34-2.75-.53-4.13-.6l1.13-3.54c.79-2.48-.43-5.15-2.72-5.97l-4.24-1.52c-8.92-3.2-19.21,2.41-22.28,12.07l-6.73,19.52-.67-.26c-3.22-1.25-6.79,.56-7.98,4.05L.39,127.92c-1.19,3.48,.45,7.32,3.66,8.57l.63,.24-.26,.77c-.94,2.96-1.19,5.23,1.55,6.22l18.35,5.64c2.73,.98,5.72-.62,6.66-3.58l18.47-58.05c1.48-.02,2.97,.14,4.45,.51,10.71,2.68,16.89,14.81,13.82,27.1-3.07,12.29-14.24,20.07-24.95,17.39-1.76-.44-5.83-1.85-7.33-2.76l-1.13,4.51c1.54,.83,5.61,2.19,7.36,2.63,12.81,3.21,26.18-6.11,29.86-20.82,3.68-14.7-3.73-29.22-16.54-32.43Z"/><path class="ap" d="M9.87,134.84l6.94-19.27c.33-1,1.31-1.57,2.25-1.31l13.14,3.58c.98,.27,1.58,1.34,1.35,2.41l-4.57,20.97c-.24,1.09-1.25,1.78-2.26,1.54l-15.51-5.29c-1.09-.26-1.71-1.49-1.34-2.63Z"/><line class="ap" x1="22.8" y1="84.02" x2="48.4" y2="91.21"/><line class="ap" x1="21.59" y1="87.75" x2="47.18" y2="94.94"/><line class="ap" x1="34.3" y1="91.82" x2="26.21" y2="116.77"/></g><path class="ai" d="M81.56,248.31l-23.75-3.47-3.75,23.54s-.5,9.01,9.78,10.69l10.28,1.68,2.09,.34,5.36-32.78Z"/><path class="ai" d="M155.68,236.31l-23.12,8.56,8.47,22.38s4.08,8.11,14.18,4.56l10.09-3.55,2.06-.72-11.67-31.23Z"/><polygon class="ab" points="157.83 241.88 134.65 250.53 133.94 248.75 157.12 240.1 157.83 241.88"/><polygon class="aa" points="159.01 245.02 135.83 253.68 135.12 251.9 158.3 243.25 159.01 245.02"/><polygon class="ad" points="80.82 255.16 56.35 251.49 56.59 249.59 81.07 253.26 80.82 255.16"/><polygon class="ac" points="80.33 258.48 55.86 254.82 56.1 252.92 80.57 256.59 80.33 258.48"/><g><path class="ae" d="M81.99,50.11c-5.94-1.52-15.83-3.12-21.38,1.09,0,0-14.83,6.41-17.18-1.9-1.44-5.07,12.02-17.3,14.6-19.59,.27-.24,.43-.57,.44-.93l.07-2.24,.4-11.93c.1-3.15,1.84-6.05,4.66-7.76,6.46-3.93,19.5-9.57,36.62-5.36,3.28,.81,5.91,3.12,6.9,6.19l3.31,10.26c.92,2.84,2.92,5.24,5.63,6.74,5.48,3.05,14.45,8.65,14.72,12.69,.23,3.48-5.95,4.17-11.08,4.14-4.14-.02-8.18,1.22-11.54,3.52-1.4,.96-3.05,1.98-4.92,2.93-6.51,3.31-14.14,3.97-21.25,2.16Z"/><path class="ai" d="M57.92,29.81s.39-.26,.55-1.02c.3-1.4,32.77-13.66,52.81-8.86,0,0,.42,.8,.93,1.43s-19.32-5.49-54.3,8.45Z"/></g><g class="af"><g><g><polygon class="ak" points="82.43 123.31 97.3 122.43 111.52 125.69 129.43 124.91 126.94 170.16 109.44 164.9 95 169.4 80.15 164.77 82.43 123.31"/><path class="ai" d="M95,169.68l-15.14-4.72v-.21l2.31-41.7,15.16-.89h.04l14.19,3.25,18.17-.79-2.52,45.91-17.75-5.35-14.44,4.5Zm-14.57-5.12l14.57,4.54,14.44-4.5,.08,.02,17.17,5.17,2.45-44.61-17.64,.77-14.22-3.25-14.59,.86-2.26,41Z"/></g><g><polygon class="ag" points="94.8 169.23 97.37 122.44 112.09 125.72 109.93 164.95 94.8 169.23"/><path class="ai" d="M94.5,169.6l.02-.38,2.59-47.11,15.26,3.4-2.18,39.66-15.69,4.44Zm3.12-46.82l-2.53,46.08,14.57-4.12,2.13-38.8-14.17-3.16Z"/></g></g></g><path class="x" d="M80.61,151.14l-13.84-45.68c-.05-.16-.44-.41-.51-.54-1.82-3.35-6.99-3.62-11.91-.52h0c-5.53,3.48-8.32,8.73-6.74,12.72l17.56,44.24c.11,.28,.26,.53,.42,.77,1.63,3.29,5.72,5.77,10.61,6.06,6.5,.38,11.95-3.27,12.17-8.15,.18-3.93-3.09-7.46-7.76-8.88Z"/></g></g></g></svg>